<svg width="16" height="16" viewBox="0 0 16 16" fill="none" xmlns="http://www.w3.org/2000/svg">
<path d="M14.5 2H13.5V1.25C13.5 0.918479 13.3683 0.600537 13.1339 0.366117C12.8995 0.131696 12.5815 0 12.25 0C11.9185 0 11.6005 0.131696 11.3661 0.366117C11.1317 0.600537 11 0.918479 11 1.25V2H5V1.25C5 0.918479 4.8683 0.600537 4.63388 0.366117C4.39946 0.131696 4.08152 0 3.75 0C3.41848 0 3.10054 0.131696 2.86612 0.366117C2.6317 0.600537 2.5 0.918479 2.5 1.25V2H1.5C1.10218 2 0.720644 2.15804 0.43934 2.43934C0.158035 2.72064 0 3.10218 0 3.5V14.5C0 14.8978 0.158035 15.2794 0.43934 15.5607C0.720644 15.842 1.10218 16 1.5 16H14.5C14.8978 16 15.2794 15.842 15.5607 15.5607C15.842 15.2794 16 14.8978 16 14.5V3.5C16 3.10218 15.842 2.72064 15.5607 2.43934C15.2794 2.15804 14.8978 2 14.5 2ZM14 14H2V5.5H14V14ZM3.5 8.5V7.5C3.5 7.36739 3.55268 7.24021 3.64645 7.14645C3.74021 7.05268 3.86739 7 4 7H5C5.13261 7 5.25979 7.05268 5.35355 7.14645C5.44732 7.24021 5.5 7.36739 5.5 7.5V8.5C5.5 8.63261 5.44732 8.75979 5.35355 8.85355C5.25979 8.94732 5.13261 9 5 9H4C3.86739 9 3.74021 8.94732 3.64645 8.85355C3.55268 8.75979 3.5 8.63261 3.5 8.5ZM7 8.5V7.5C7 7.36739 7.05268 7.24021 7.14645 7.14645C7.24021 7.05268 7.36739 7 7.5 7H8.5C8.63261 7 8.75979 7.05268 8.85355 7.14645C8.94732 7.24021 9 7.36739 9 7.5V8.5C9 8.63261 8.94732 8.75979 8.85355 8.85355C8.75979 8.94732 8.63261 9 8.5 9H7.5C7.36739 9 7.24021 8.94732 7.14645 8.85355C7.05268 8.75979 7 8.63261 7 8.5ZM10.5 8.5V7.5C10.5 7.36739 10.5527 7.24021 10.6464 7.14645C10.7402 7.05268 10.8674 7 11 7H12C12.1326 7 12.2598 7.05268 12.3536 7.14645C12.4473 7.24021 12.5 7.36739 12.5 7.5V8.5C12.5 8.63261 12.4473 8.75979 12.3536 8.85355C12.2598 8.94732 12.1326 9 12 9H11C10.8674 9 10.7402 8.94732 10.6464 8.85355C10.5527 8.75979 10.5 8.63261 10.5 8.5ZM3.5 12V11C3.5 10.8674 3.55268 10.7402 3.64645 10.6464C3.74021 10.5527 3.86739 10.5 4 10.5H5C5.13261 10.5 5.25979 10.5527 5.35355 10.6464C5.44732 10.7402 5.5 10.8674 5.5 11V12C5.5 12.1326 5.44732 12.2598 5.35355 12.3536C5.25979 12.4473 5.13261 12.5 5 12.5H4C3.86739 12.5 3.74021 12.4473 3.64645 12.3536C3.55268 12.2598 3.5 12.1326 3.5 12ZM7 12V11C7 10.8674 7.05268 10.7402 7.14645 10.6464C7.24021 10.5527 7.36739 10.5 7.5 10.5H8.5C8.63261 10.5 8.75979 10.5527 8.85355 10.6464C8.94732 10.7402 9 10.8674 9 11V12C9 12.1326 8.94732 12.2598 8.85355 12.3536C8.75979 12.4473 8.63261 12.5 8.5 12.5H7.5C7.36739 12.5 7.24021 12.4473 7.14645 12.3536C7.05268 12.2598 7 12.1326 7 12Z" fill="#9CA3AF"/>
</svg>
